<svg width="64" height="64" viewBox="0 0 64 64" fill="none" xmlns="http://www.w3.org/2000/svg">
<mask id="mask0_210_4261" style="mask-type:alpha" maskUnits="userSpaceOnUse" x="0" y="0" width="64" height="64">
<rect width="64" height="64" fill="#D9D9D9"/>
</mask>
<g mask="url(#mask0_210_4261)">
<path d="M17.3333 29.3333L32 5.33334L46.6667 29.3333H17.3333ZM46.6667 58.6667C43.3333 58.6667 40.5 57.5 38.1667 55.1667C35.8333 52.8333 34.6667 50 34.6667 46.6667C34.6667 43.3333 35.8333 40.5 38.1667 38.1667C40.5 35.8333 43.3333 34.6667 46.6667 34.6667C50 34.6667 52.8333 35.8333 55.1667 38.1667C57.5 40.5 58.6667 43.3333 58.6667 46.6667C58.6667 50 57.5 52.8333 55.1667 55.1667C52.8333 57.5 50 58.6667 46.6667 58.6667ZM8 57.3333V36H29.3333V57.3333H8ZM46.6667 53.3333C48.5333 53.3333 50.1111 52.6889 51.4 51.4C52.6889 50.1111 53.3333 48.5333 53.3333 46.6667C53.3333 44.8 52.6889 43.2222 51.4 41.9333C50.1111 40.6444 48.5333 40 46.6667 40C44.8 40 43.2222 40.6444 41.9333 41.9333C40.6444 43.2222 40 44.8 40 46.6667C40 48.5333 40.6444 50.1111 41.9333 51.4C43.2222 52.6889 44.8 53.3333 46.6667 53.3333ZM13.3333 52H24V41.3333H13.3333V52ZM26.8 24H37.2L32 15.6L26.8 24Z" fill="#262626"/>
</g>
</svg>
