<svg xmlns="http://www.w3.org/2000/svg" height="40" viewBox="0 96 960 960" width="40"><path d="M480 536q157.334 0 258.667-48.333Q840 439.333 840 376q0-64-101.333-112T480 216q-157.334 0-258.667 48Q120 312 120 376q0 63.333 101.333 111.667Q322.666 536 480 536Zm0 100q47 0 108.833-8.5 61.834-8.5 117.834-26.833 56-18.334 94.666-47.5Q840 524 840 482.667v100q0 41.333-38.667 70.5-38.666 29.166-94.666 47.5-56 18.333-117.834 26.833Q527 736 480 736q-46.333 0-108.5-8.5t-118.167-27.167q-56-18.666-94.666-47.833Q120 623.333 120 582.667v-100q0 40.666 38.667 69.833 38.666 29.167 94.666 47.833Q309.333 619 371.5 627.5T480 636Zm0 200q47 0 108.833-8.5 61.834-8.5 117.834-26.833 56-18.334 94.666-47.5Q840 724 840 682.667v100q0 41.333-38.667 70.5-38.666 29.166-94.666 47.5-56 18.333-117.834 26.833Q527 936 480 936q-46.333 0-108.5-8.5t-118.167-27.167q-56-18.666-94.666-47.833Q120 823.333 120 782.667v-100q0 40.666 38.667 69.833 38.666 29.167 94.666 47.833Q309.333 819 371.5 827.5T480 836Z"/></svg>