<svg width="16" height="16" viewBox="0 0 16 16" fill="none" xmlns="http://www.w3.org/2000/svg">
<mask id="mask0_399_5123" style="mask-type:alpha" maskUnits="userSpaceOnUse" x="0" y="0" width="16" height="16">
<rect width="16" height="16" fill="#D9D9D9"/>
</mask>
<g mask="url(#mask0_399_5123)">
<path d="M0 13.6587V10.992H13.3333V13.6587H0ZM1.33333 9.65867V7.15867L7.36667 1.12533L9.86667 3.62533L3.83333 9.65867H1.33333ZM2.66667 8.32533H3.26667L8 3.62533L7.36667 2.992L2.66667 7.72533V8.32533ZM10.6167 2.892L8.11667 0.392L9.31667 -0.808C9.43889 -0.941333 9.59444 -1.00522 9.78333 -0.999667C9.97222 -0.994111 10.1278 -0.930222 10.25 -0.808L11.8167 0.758667C11.9389 0.880889 12 1.03367 12 1.217C12 1.40033 11.9389 1.55867 11.8167 1.692L10.6167 2.892Z" fill="#D7D7D7"/>
</g>
</svg>
