<svg xmlns="http://www.w3.org/2000/svg" height="40" viewBox="0 96 960 960" width="40"><path d="M146.666 776q-27.5 0-47.083-19.583T80 709.334V442.666q0-27.5 19.583-47.083T146.666 376h666.668q27.5 0 47.083 19.583T880 442.666v266.668q0 27.5-19.583 47.083T813.334 776h-56.001v-66.666h56.001V442.666H146.666v266.668h256.001V776H146.666ZM580 856l-38.667-85.333L456 732l85.333-38.666L580 608.001l38.667 85.333L704 732l-85.333 38.667L580 856Zm100-208-22.5-49.5L608 576l49.5-22.5L680 504l22.5 49.5L752 576l-49.5 22.5L680 648Z"/></svg>