<svg width="64" height="64" viewBox="0 0 64 64" fill="none" xmlns="http://www.w3.org/2000/svg">
<mask id="mask0_210_4781" style="mask-type:alpha" maskUnits="userSpaceOnUse" x="0" y="0" width="64" height="64">
<rect width="64" height="64" fill="#D9D9D9"/>
</mask>
<g mask="url(#mask0_210_4781)">
<path d="M10.6666 53.3333C9.19992 53.3333 7.94436 52.8111 6.89992 51.7667C5.85547 50.7222 5.33325 49.4667 5.33325 48V16C5.33325 14.5333 5.85547 13.2778 6.89992 12.2333C7.94436 11.1889 9.19992 10.6667 10.6666 10.6667H53.3332C54.7999 10.6667 56.0555 11.1889 57.0999 12.2333C58.1444 13.2778 58.6666 14.5333 58.6666 16V48C58.6666 49.4667 58.1444 50.7222 57.0999 51.7667C56.0555 52.8111 54.7999 53.3333 53.3332 53.3333H10.6666ZM10.6666 48H53.3332V21.3333H10.6666V48ZM19.9999 45.3333L16.2666 41.6L23.1333 34.6667L16.1999 27.7333L19.9999 24L30.6666 34.6667L19.9999 45.3333ZM31.9999 45.3333V40H47.9999V45.3333H31.9999Z" fill="#1C1B1F"/>
</g>
</svg>
