<svg width="23" height="24" viewBox="0 0 23 24"  xmlns="http://www.w3.org/2000/svg">
    <path d="M17.8125 15V13H4.6875V15H17.8125ZM17.8125 11V9H4.6875V11H17.8125ZM17.8125 7V5H4.6875V7H17.8125ZM4.6875 21C4.17188 21 3.73031 20.8043 3.36281 20.413C2.99594 20.021 2.8125 19.55 2.8125 19V5C2.8125 4.45 2.99594 3.979 3.36281 3.587C3.73031 3.19567 4.17188 3 4.6875 3H17.8125C18.3281 3 18.7697 3.19567 19.1372 3.587C19.5041 3.979 19.6875 4.45 19.6875 5V19C19.6875 19.55 19.5041 20.021 19.1372 20.413C18.7697 20.8043 18.3281 21 17.8125 21H4.6875ZM17.8125 19V17H4.6875V19H17.8125Z"/>
</svg>
