<svg width="64" height="64" viewBox="0 0 64 64" fill="none" xmlns="http://www.w3.org/2000/svg">
<mask id="mask0_221_4076" style="mask-type:alpha" maskUnits="userSpaceOnUse" x="0" y="0" width="64" height="64">
<rect width="64" height="64" fill="#D9D9D9"/>
</mask>
<g mask="url(#mask0_221_4076)">
<path d="M48.0001 53.3333C48.0001 48.1778 47.0223 43.3333 45.0668 38.8C43.1112 34.2667 40.4445 30.3111 37.0668 26.9333C33.689 23.5556 29.7334 20.8889 25.2001 18.9333C20.6667 16.9778 15.8223 16 10.6667 16V10.6667C16.5334 10.6667 22.0556 11.7889 27.2334 14.0333C32.4112 16.2778 36.9334 19.3333 40.8001 23.2C44.6667 27.0667 47.7223 31.5889 49.9667 36.7667C52.2112 41.9444 53.3334 47.4667 53.3334 53.3333H48.0001Z" fill="#1C1B1F"/>
</g>
</svg>
