<svg width="64" height="64" viewBox="0 0 64 64" fill="none" xmlns="http://www.w3.org/2000/svg">
<mask id="mask0_210_4267" style="mask-type:alpha" maskUnits="userSpaceOnUse" x="0" y="0" width="64" height="64">
<rect width="64" height="64" fill="#D9D9D9"/>
</mask>
<g mask="url(#mask0_210_4267)">
<path d="M21.3334 32V26.6667H42.6667V32H21.3334ZM21.3334 21.3333V16H42.6667V21.3333H21.3334ZM16.0001 37.3333H36.0001C37.289 37.3333 38.489 37.6111 39.6001 38.1667C40.7112 38.7222 41.6445 39.5111 42.4001 40.5333L48.0001 47.8667V10.6667H16.0001V37.3333ZM16.0001 53.3333H45.4668L38.2001 43.8C37.9334 43.4444 37.6112 43.1667 37.2334 42.9667C36.8556 42.7667 36.4445 42.6667 36.0001 42.6667H16.0001V53.3333ZM48.0001 58.6667H16.0001C14.5334 58.6667 13.2779 58.1444 12.2334 57.1C11.189 56.0556 10.6667 54.8 10.6667 53.3333V10.6667C10.6667 9.2 11.189 7.94445 12.2334 6.9C13.2779 5.85556 14.5334 5.33333 16.0001 5.33333H48.0001C49.4668 5.33333 50.7223 5.85556 51.7668 6.9C52.8112 7.94445 53.3334 9.2 53.3334 10.6667V53.3333C53.3334 54.8 52.8112 56.0556 51.7668 57.1C50.7223 58.1444 49.4668 58.6667 48.0001 58.6667Z" fill="#1C1B1F"/>
</g>
</svg>
